<svg width="829" height="156" viewBox="0 0 829 156" fill="none" xmlns="http://www.w3.org/2000/svg">
<path d="M41.05 116.723C54.2655 116.723 81.7486 109.186 81.7486 82.1838C81.7486 42.615 31.1837 53.6167 31.1837 33.486C31.1837 30.5102 34.0134 25.8067 41.1709 25.8067C48.3284 25.8067 56.9174 30.4079 63.9726 36.4407L78.901 16.911C78.901 16.911 64.4092 2.41919 40.9349 2.41919C17.4605 2.41919 3.96657 19.2971 3.96657 35.9421C3.96657 73.2476 54.2014 67.4128 54.2014 83.9209C54.2014 88.7595 50.8909 93.0542 41.8719 93.0542C32.8529 93.0542 21.8467 86.943 15.6568 79.9035L0 98.8374C0 98.8374 15.8315 116.723 41.05 116.723Z" fill="#409A5D"/>
<path d="M117.73 38.6941H93.837V115.135H117.73V38.6941Z" fill="#409A5D"/>
<path d="M105.784 28.9382C113.196 28.9382 119.205 22.9295 119.205 15.5175C119.205 8.10536 113.196 2.09668 105.784 2.09668C98.3717 2.09668 92.363 8.10536 92.363 15.5175C92.363 22.9295 98.3717 28.9382 105.784 28.9382Z" fill="#409A5D"/>
<path d="M170.663 36.9331C149.111 36.9331 131.577 54.4672 131.577 76.0189V115.024H155.47V76.0189C155.47 67.6421 162.286 60.8267 170.663 60.8267C179.039 60.8267 185.855 67.6421 185.855 76.0189V115.024H209.748V76.0189C209.748 54.4672 192.214 36.9331 170.663 36.9331Z" fill="#409A5D"/>
<path d="M259.941 116.723C237.943 116.723 220.046 98.8263 220.046 76.8281C220.046 54.8299 237.943 36.9331 259.941 36.9331C281.94 36.9331 299.836 54.8299 299.836 76.8281C299.836 98.8263 281.94 116.723 259.941 116.723ZM259.941 60.8266C251.118 60.8266 243.94 68.0049 243.94 76.8281C243.94 85.6514 251.118 92.8296 259.941 92.8296C268.765 92.8296 275.943 85.6513 275.943 76.8281C275.943 68.0049 268.765 60.8266 259.941 60.8266Z" fill="#409A5D"/>
<path d="M302.018 36.9331H259.941V60.8266H302.018V36.9331Z" fill="#409A5D"/>
<path d="M296.461 60.8267C290.281 46.778 276.248 36.9331 259.941 36.9331V60.8267H296.461Z" fill="#409A5D"/>
<path d="M259.941 155.412C250.126 155.412 240.546 153.622 231.467 150.091L240.126 127.823C252.74 132.726 267.142 132.728 279.751 127.825L288.41 150.093C279.334 153.623 269.755 155.412 259.941 155.412Z" fill="#409A5D"/>
<path d="M367.295 38.5459V77.5511C367.295 85.9278 360.479 92.7433 352.102 92.7433C343.726 92.7433 336.91 85.9278 336.91 77.5511V38.5459H313.017V77.5511C313.017 99.1027 330.551 116.637 352.102 116.637C373.654 116.637 391.188 99.1027 391.188 77.5511V38.5459H367.295Z" fill="#409A5D"/>
<path d="M429.089 0H405.196V115.106H429.089V0Z" fill="#409A5D"/>
<path d="M481.071 116.723C459.073 116.723 441.176 98.8263 441.176 76.8281C441.176 54.8299 459.073 36.9331 481.071 36.9331C503.071 36.9331 520.967 54.8299 520.967 76.8281C520.967 98.8263 503.071 116.723 481.071 116.723ZM481.071 60.8266C472.248 60.8266 465.07 68.0049 465.07 76.8281C465.07 85.6514 472.248 92.8296 481.071 92.8296C489.896 92.8296 497.074 85.6513 497.074 76.8281C497.074 68.0049 489.896 60.8266 481.071 60.8266Z" fill="#409A5D"/>
<path d="M520.967 76.8281H497.074V115.024H520.967V76.8281Z" fill="#409A5D"/>
<path d="M520.967 76.8281H497.074V113.348C511.123 107.167 520.967 93.1344 520.967 76.8281Z" fill="#409A5D"/>
<path d="M574.062 60.8268C575.351 60.8268 576.631 60.9869 577.861 61.3019L583.787 38.155C580.623 37.3446 577.35 36.9331 574.062 36.9331C552.51 36.9331 534.976 54.4673 534.976 76.019H558.869C558.869 67.6422 565.685 60.8268 574.062 60.8268Z" fill="#409A5D"/>
<path d="M558.869 38.5835H534.976V115.024H558.869V38.5835Z" fill="#409A5D"/>
<path d="M558.869 76.0189V40.0071C544.842 45.9472 534.976 59.8525 534.976 76.0189" fill="#409A5D"/>
<path d="M637.071 64.1188L648.602 46.6314C639.649 40.576 632.337 36.9331 619.812 36.9331C609.029 36.9331 591.099 42.8801 591.099 61.1406C591.099 88.4314 626.685 84.7304 626.685 93.0608C626.685 95.1224 624.594 97.4899 619.812 97.4899C615.03 97.4899 604.348 93.7219 599.805 88.708L588.274 105.126C588.274 105.126 599.855 116.63 620.146 116.63C640.437 116.63 650.511 104.728 650.511 92.1568C650.511 65.9833 614.39 68.5261 614.39 60.0715C614.39 58.902 614.888 56.1769 619.66 56.1769C624.431 56.1769 629.119 57.5164 637.071 64.1188Z" fill="#409A5D"/>
<path d="M686.62 38.6941H662.727V115.135H686.62V38.6941Z" fill="#409A5D"/>
<path d="M674.674 28.9382C682.086 28.9382 688.095 22.9295 688.095 15.5175C688.095 8.10536 682.086 2.09668 674.674 2.09668C667.262 2.09668 661.253 8.10536 661.253 15.5175C661.253 22.9295 667.262 28.9382 674.674 28.9382Z" fill="#409A5D"/>
<path d="M742.694 39.1755H701.112V58.7248H742.694V39.1755Z" fill="#409A5D"/>
<path d="M730.586 116.806C714.333 116.806 701.112 103.583 701.112 87.3316V11.9347H725.005V87.3317C725.005 90.4085 727.508 92.9126 730.586 92.9126C732.052 92.9126 733.14 92.3622 733.794 91.8997L747.586 111.411C742.592 114.941 736.714 116.806 730.586 116.806Z" fill="#409A5D"/>
<path d="M725.005 39.1755H701.112V58.7248H725.005V39.1755Z" fill="#409A5D"/>
<path d="M767.038 145.99H792.017L828.655 38.5459H803.676L767.038 145.99Z" fill="#409A5D"/>
<path d="M751.545 38.5459H776.523L802.589 114.987H777.61L751.545 38.5459Z" fill="#409A5D"/>
<path d="M777.61 114.987H802.589L790.1 78.3604L777.61 114.987Z" fill="#409A5D"/>
</svg>
